<svg width="32" height="32" viewBox="0 0 32 32" fill="none" xmlns="http://www.w3.org/2000/svg">
<circle cx="16" cy="16" r="16" transform="matrix(-1 0 0 1 32 0)" fill="white"/>
<mask id="mask0_21_116" style="mask-type:alpha" maskUnits="userSpaceOnUse" x="0" y="0" width="32" height="32">
<circle cx="16" cy="16" r="16" fill="white"/>
</mask>
<g mask="url(#mask0_21_116)">
<mask id="mask1_21_116" style="mask-type:alpha" maskUnits="userSpaceOnUse" x="8" y="8" width="16" height="28">
<path fill-rule="evenodd" clip-rule="evenodd" d="M19.0777 22.6712C21.5839 21.5086 23.322 18.97 23.322 16.0254C23.322 11.9816 20.0439 8.7034 16 8.7034C11.9562 8.7034 8.67798 11.9816 8.67798 16.0254C8.67798 18.97 10.4161 21.5086 12.9223 22.6712C12.6092 23.0518 12.3561 23.5089 12.187 24.0425L10.2531 30.1434C9.43563 32.7224 11.3607 35.3521 14.0661 35.3521H17.9338C20.6392 35.3521 22.5643 32.7224 21.7469 30.1434L19.813 24.0425C19.6439 23.5089 19.3907 23.0518 19.0777 22.6712Z" fill="white"/>
</mask>
<g mask="url(#mask1_21_116)">
<rect x="-1.42377" y="20.6516" width="24.256" height="8.30994" transform="rotate(-45 -1.42377 20.6516)" fill="#FF4910"/>
<rect x="4.45227" y="26.5276" width="24.256" height="8.30994" transform="rotate(-45 4.45227 26.5276)" fill="#FFBD21"/>
<rect x="10.3283" y="32.4037" width="24.256" height="8.30994" transform="rotate(-45 10.3283 32.4037)" fill="#3C18A2"/>
</g>
</g>
<path d="M16 18.7273C14.7329 18.7273 12.3182 18.5227 9.45454 16.2727C12.1136 14.0227 14.7329 13.8182 16 13.8182L16 16.2727L16 18.7273Z" fill="white"/>
<path d="M16 13.8182C17.2671 13.8182 19.6818 14.0227 22.5455 16.2727C19.8864 18.5227 17.2671 18.7273 16 18.7273L16 16.2727L16 13.8182Z" fill="white"/>
<circle cx="16" cy="16.2727" r="2.45455" fill="#373737"/>
</svg>